<svg width="129" height="29" viewBox="0 0 129 29" fill="none" xmlns="http://www.w3.org/2000/svg">
<rect width="129" height="29" fill="none"/>
<path fill-rule="evenodd" clip-rule="evenodd" d="M5.61863 13.816C5.15399 13.8727 4.87372 14.3632 5.05644 14.7986C5.95265 16.9291 8.60407 22.4863 12.7544 24.9037C15.1694 26.3109 17.5033 26.1441 19.2478 25.6136C16.9634 25.244 13.8003 24.0745 11.8061 20.5885C10.5916 18.4664 10.0063 15.9564 9.75657 13.5866C9.63256 13.5849 9.50937 13.5841 9.38784 13.5841C7.80707 13.5841 6.45532 13.7125 5.61946 13.816H5.61863Z" fill="#4A004C"/>
<path fill-rule="evenodd" clip-rule="evenodd" d="M11.5546 6.46445C11.3851 7.84858 11.1417 10.6614 11.4783 13.6401C11.7144 15.7316 12.2351 17.9048 13.2668 19.7231C14.9636 22.7158 17.675 23.6815 19.6549 23.9646C17.2046 21.9557 15.0277 18.8911 14.889 15.5987C14.3812 15.2149 14.0292 14.6298 13.9489 13.9596C13.9376 13.8622 13.9311 13.7648 13.9311 13.6666C13.9311 12.639 14.5686 11.7591 15.4624 11.4158C15.773 10.3775 16.211 9.31773 16.765 8.25879C16.7431 8.20514 16.7236 8.15066 16.7066 8.09536C15.0041 7.03725 13.4249 6.29938 12.5076 5.90568C12.4192 5.86771 12.3276 5.84956 12.2383 5.84956C11.9042 5.84956 11.5984 6.09964 11.5538 6.46528L11.5546 6.46445Z" fill="#4A004C"/>
<path fill-rule="evenodd" clip-rule="evenodd" d="M34.7778 13.5866C34.5245 15.9564 33.93 18.4663 32.6989 20.5884C30.6761 24.0743 27.4667 25.2438 25.1504 25.6133C26.9199 26.1438 29.2865 26.3115 31.7361 24.9034C35.946 22.4861 38.6355 16.929 39.5445 14.7986C39.7299 14.3632 39.4456 13.8727 38.9734 13.816C38.1247 13.7125 36.7536 13.5841 35.1501 13.5841C35.0277 13.5841 34.9036 13.5849 34.7778 13.5866Z" fill="#4A004C"/>
<path fill-rule="evenodd" clip-rule="evenodd" d="M32.1059 5.90678C31.3095 6.25343 30.0094 6.86464 28.5646 7.72712C28.5999 7.78932 28.6337 7.84986 28.6674 7.91206C29.8093 8.06465 30.6948 9.07476 30.6948 10.2938C30.6948 10.8329 30.5221 11.3313 30.2304 11.7319C30.4353 12.4882 30.5606 13.2512 30.6088 14.0125C30.7318 15.9373 30.3565 17.8555 29.4935 19.6634C28.759 21.2001 27.6855 22.6017 26.3717 23.7611C28.0937 23.2568 30.0335 22.1514 31.3529 19.7903C32.3751 17.9633 32.8909 15.7797 33.1248 13.6791C33.4583 10.6844 33.218 7.85898 33.0493 6.46823C33.0051 6.10167 32.7021 5.84956 32.371 5.84956C32.2827 5.84956 32.1927 5.86697 32.1043 5.90595L32.1059 5.90678Z" fill="#4A004C"/>
<path fill-rule="evenodd" clip-rule="evenodd" d="M18.0265 7.37523C18.0265 7.8806 18.3915 8.29203 18.8399 8.29203C19.2884 8.29203 19.6549 7.88147 19.6549 7.37523C19.6549 6.86899 19.2899 6.46017 18.8399 6.46017C18.3899 6.46017 18.0265 6.87073 18.0265 7.37523Z" fill="#4A004C"/>
<path fill-rule="evenodd" clip-rule="evenodd" d="M19.6549 6.16371C20.0154 6.41415 20.2524 6.83537 20.2524 7.31161C20.2524 7.52756 20.2037 7.73366 20.1168 7.91677L22.3009 10.1239V3C21.2917 4.05922 20.4083 5.11598 19.6549 6.16453V6.16371Z" fill="#4A004C"/>
<path fill-rule="evenodd" clip-rule="evenodd" d="M23.3193 5.84956L23.8677 5.19456C23.8387 5.08737 23.8225 4.97426 23.8225 4.85609C23.8225 4.53366 23.9419 4.24415 24.1327 4.04917C23.8726 3.70057 23.6005 3.35029 23.3186 3V5.84956H23.3193Z" fill="#4A004C"/>
<path fill-rule="evenodd" clip-rule="evenodd" d="M24.3363 4.83226C24.3363 5.17063 24.6081 5.44247 24.9465 5.44247C25.2849 5.44247 25.5575 5.17063 25.5575 4.83226C25.5575 4.49389 25.2841 4.22123 24.9465 4.22123C24.609 4.22123 24.3363 4.49389 24.3363 4.83226Z" fill="#4A004C"/>
<path fill-rule="evenodd" clip-rule="evenodd" d="M28.2036 9.10619H28.2004C28.1317 9.10619 28.0629 9.11402 27.9981 9.12967C27.5335 9.23488 27.1859 9.68614 27.1859 10.2261C27.1859 10.8452 27.6418 11.3451 28.2043 11.3451C28.3821 11.3451 28.5481 11.2956 28.6927 11.2077C29.0079 11.0165 29.2213 10.6495 29.2213 10.2252C29.2213 9.60789 28.7646 9.10619 28.2043 9.10619H28.2036Z" fill="#4A004C"/>
<path fill-rule="evenodd" clip-rule="evenodd" d="M16.3062 15.4397C16.2682 15.4397 16.2319 15.4389 16.1947 15.4364C16.2666 18.921 19.223 22.3717 22.1472 24.0805C22.1662 24.0912 22.1852 24.1028 22.2034 24.1127H22.2042C22.2364 24.1318 22.2678 24.1508 22.3009 24.1681V22.6428C22.2744 22.6379 22.2496 22.6321 22.224 22.6263C21.796 22.5246 21.4134 22.3047 21.1118 22.0046L21.1044 21.9972H21.1036C20.6863 21.5739 20.4277 20.9927 20.4277 20.3529C20.4277 20.2016 20.4426 20.0536 20.4698 19.9097C20.5376 19.5534 20.6871 19.2277 20.8954 18.9483L20.3161 18.3688L17.1614 15.2124C16.9086 15.3571 16.6161 15.4381 16.3046 15.4381L16.3062 15.4397Z" fill="#4A004C"/>
<path fill-rule="evenodd" clip-rule="evenodd" d="M16.2969 14.8053H16.302C16.4056 14.8053 16.5058 14.7907 16.6017 14.7633H16.6025C17.0717 14.6297 17.4159 14.1978 17.4159 13.6854C17.4159 13.0668 16.9151 12.5664 16.2977 12.5664C15.6804 12.5664 15.177 13.0668 15.177 13.6854C15.177 13.9399 15.2626 14.1747 15.4073 14.364C15.6119 14.6322 15.9347 14.8053 16.2977 14.8053H16.2969Z" fill="#4A004C"/>
<path fill-rule="evenodd" clip-rule="evenodd" d="M22.3009 18V11.6028L19.4881 8.75792C19.3097 8.84532 19.107 8.89514 18.8947 8.89514C18.6388 8.89514 18.399 8.8249 18.1915 8.69911C18.1431 8.78733 18.0971 8.87391 18.051 8.9613C17.5069 9.99619 17.0903 11.0147 16.8053 12.0088C17.5691 12.177 18.1407 12.8664 18.1407 13.6889C18.1407 13.9969 18.0599 14.286 17.9203 14.536L20.4375 17.0836H20.4384L21.6058 18.2655C21.8181 18.1397 22.0514 18.0498 22.2993 17.9992L22.3009 18Z" fill="#4A004C"/>
<path fill-rule="evenodd" clip-rule="evenodd" d="M23.3194 7.12273V14.6018L23.4182 14.503L26.8372 11.0883C26.6927 10.8336 26.6105 10.5408 26.6105 10.2263C26.6105 9.53692 27.0116 8.94043 27.5929 8.65835C27.5373 8.55631 27.4799 8.45427 27.421 8.3514C26.9119 7.4579 26.3073 6.55444 25.6081 5.646C25.4287 5.78953 25.2012 5.87332 24.9545 5.87332C24.8383 5.87332 24.727 5.85424 24.6215 5.82105L23.3186 7.12273H23.3194Z" fill="#4A004C"/>
<path fill-rule="evenodd" clip-rule="evenodd" d="M22.8148 18.8761H22.8089C22.3359 18.8761 21.9145 19.0912 21.6335 19.4298C21.4144 19.694 21.2832 20.0327 21.2832 20.4027C21.2832 21.052 21.6885 21.6066 22.2597 21.8268C22.2843 21.8361 22.3079 21.8454 22.3342 21.853C22.484 21.9021 22.6439 21.9292 22.8089 21.9292C23.1203 21.9292 23.4097 21.8369 23.6509 21.6769C24.0638 21.4043 24.3363 20.9352 24.3363 20.4035C24.3363 20.1588 24.2779 19.9277 24.1764 19.7219C23.9809 19.3308 23.6221 19.0353 23.1888 18.9252C23.0695 18.893 22.9434 18.8769 22.8148 18.8769V18.8761Z" fill="#4A004C"/>
<path fill-rule="evenodd" clip-rule="evenodd" d="M23.8028 15.4342L23.3186 15.9302V18.032C23.4281 18.0545 23.5351 18.0844 23.6381 18.1226C23.8742 18.2098 24.0916 18.3344 24.2838 18.4898C24.3552 18.5471 24.4217 18.6078 24.4858 18.6734C24.8995 19.0979 25.1574 19.6845 25.1574 20.3333C25.1574 20.9821 24.9003 21.5686 24.4858 21.9932C24.1727 22.313 23.7687 22.5415 23.3194 22.6345V24.1681C23.3469 24.1524 23.3753 24.1366 23.4021 24.1208C26.9192 22.0954 29.381 18.3876 29.2131 14.2645C29.1823 13.4811 29.0558 12.6802 28.8213 11.8743C28.6413 11.9416 28.445 11.979 28.2414 11.979C27.9356 11.979 27.6484 11.8959 27.4002 11.7522L23.8028 15.4342Z" fill="#4A004C"/>
<path d="M57.5691 22.0177H49.3093V7H52.2089V19.5567H57.5691V22.0177Z" fill="#4A004C"/>
<path d="M61.0992 16.4169C61.0992 17.5864 61.2763 18.4788 61.6305 19.0939C61.9847 19.709 62.5061 20.0176 63.1958 20.0176C63.8854 20.0176 64.4157 19.706 64.7709 19.0838C65.1251 18.4616 65.3022 17.5723 65.3022 16.4169C65.3022 15.2616 65.1231 14.3824 64.765 13.7602C64.4068 13.138 63.8834 12.8264 63.1948 12.8264C62.5061 12.8264 61.9679 13.136 61.6196 13.7551C61.2714 14.3743 61.0982 15.2616 61.0982 16.4169H61.0992ZM68.0805 16.3967C68.0805 18.1682 67.6491 19.5481 66.7863 20.5356C65.9236 21.524 64.7303 22.0177 63.2056 22.0177C61.681 22.0177 60.4769 21.522 59.6141 20.5305C58.7513 19.539 58.3199 18.1611 58.3199 16.3967C58.3199 14.6323 58.7652 13.3019 59.6547 12.2831C60.5441 11.2643 61.7275 10.7544 63.2056 10.7544C64.6838 10.7544 65.9404 11.2502 66.7972 12.2416C67.653 13.2331 68.0815 14.6181 68.0815 16.3957L68.0805 16.3967Z" fill="#4A004C"/>
<path d="M68.8323 13.399V11.2825H69.8551V7.75089H72.3473V11.2825H74.7665V13.399H72.3752V17.7133C72.3752 18.5158 72.4652 19.0779 72.6444 19.3994C72.8236 19.7201 73.1387 19.8813 73.5889 19.8813C73.9841 19.8813 74.3523 19.7943 74.6936 19.6201H74.8394V21.7169C74.328 21.9178 73.759 22.0177 73.1324 22.0177C72.0061 22.0177 71.1786 21.7238 70.6492 21.1351C70.1198 20.5463 69.8551 19.6439 69.8551 18.4258V13.399H68.8323Z" fill="#4A004C"/>
<path d="M85.3518 21.8214H82.6604V20.6153C82.2724 21.0728 81.8096 21.4209 81.27 21.6598C80.7313 21.8987 80.1527 22.0177 79.5353 22.0177C78.5299 22.0177 77.7462 21.7159 77.1842 21.1105C76.6222 20.506 76.3412 19.5823 76.3412 18.3404V11.5053H79.0521V17.7621C79.0521 18.5136 79.1668 19.0533 79.3972 19.3802C79.6277 19.7071 80.0312 19.8705 80.6097 19.8705C80.9841 19.8705 81.3215 19.8106 81.62 19.6897C81.9185 19.5688 82.2588 19.3289 82.64 18.9691V11.5063H85.3508V21.8223L85.3518 21.8214Z" fill="#4A004C"/>
<path d="M95.1115 18.5599C95.1115 19.6032 94.7654 20.4407 94.0724 21.0713C93.3802 21.7019 92.4522 22.0177 91.2883 22.0177C90.445 22.0177 89.7073 21.9289 89.0771 21.7513C88.446 21.5738 87.9551 21.373 87.6045 21.148V18.7647H87.7802C88.1436 19.1471 88.6618 19.4589 89.3357 19.7011C90.0097 19.9432 90.6481 20.0643 91.2519 20.0643C92.342 20.0643 92.8866 19.6587 92.8866 18.8465C92.8866 18.5872 92.8402 18.3934 92.7482 18.2633C92.6553 18.1341 92.4914 18.0141 92.2546 17.9051C92.0178 17.7961 91.5479 17.6428 90.8466 17.445C89.9851 17.2129 89.3412 16.9577 88.9168 16.6782C88.4924 16.3987 88.1673 16.0526 87.9423 15.6399C87.7174 15.2272 87.6054 14.7207 87.6054 14.1204C87.6054 13.1245 87.9597 12.3143 88.6673 11.6908C89.3749 11.0672 90.2929 10.7544 91.4195 10.7544C91.9978 10.7544 92.5906 10.8261 93.1972 10.9693C93.8037 11.1126 94.3101 11.2973 94.7163 11.5223V13.8651H94.5405C94.1161 13.4827 93.6443 13.1901 93.128 12.9853C92.6107 12.7805 92.0843 12.6786 91.5488 12.6786C91.0743 12.6786 90.6882 12.7805 90.3904 12.9853C90.0916 13.1901 89.9423 13.4767 89.9423 13.8449C89.9423 14.1042 89.9896 14.305 90.0853 14.4483C90.1809 14.5916 90.3466 14.7228 90.5843 14.8418C90.8211 14.9609 91.3302 15.1334 92.1125 15.3584C93.1899 15.6651 93.9595 16.0556 94.4212 16.5298C94.8829 17.0041 95.1133 17.6811 95.1133 18.5609L95.1115 18.5599Z" fill="#4A004C"/>
<path d="M105.626 8.704H99.357V12.9506H104.549V14.6446H99.357V22.0177H97.366V7H105.626V8.704Z" fill="#4A004C"/>
<path d="M109.082 8.704V20.3425H110.384C112.048 20.3425 113.337 19.8502 114.253 18.8654C115.168 17.8805 115.626 16.4232 115.626 14.4934C115.626 12.5636 115.188 11.158 114.313 10.1762C113.437 9.19441 112.161 8.704 110.485 8.704H109.083H109.082ZM107.128 22.0177V7H110.415C112.746 7 114.533 7.64559 115.776 8.93677C117.018 10.228 117.64 12.0901 117.64 14.5243C117.64 16.9584 116.97 18.8156 115.631 20.0968C114.291 21.3781 112.57 22.0177 110.464 22.0177H107.128Z" fill="#4A004C"/>
<path d="M124.398 22.0177H119.142V20.3435H120.879V8.69405H119.142V7H124.398V8.69405H122.661V20.3435H124.398V22.0177Z" fill="#4A004C"/>
</svg>
