<svg width="66" height="59" viewBox="0 0 66 59" fill="none" xmlns="http://www.w3.org/2000/svg">
<path fill-rule="evenodd" clip-rule="evenodd" d="M6.6965 16.9453C5.96856 17.0342 5.52946 17.8026 5.81572 18.4848C7.2198 21.8226 11.3738 30.529 17.8761 34.3164C21.6596 36.5211 25.3162 36.2597 28.0492 35.4285C24.4704 34.8496 19.5146 33.0173 16.3904 27.5559C14.4876 24.2312 13.5706 20.2988 13.1794 16.5859C12.9851 16.5833 12.7921 16.582 12.6017 16.582C10.1251 16.582 8.00733 16.7833 6.6978 16.9453H6.6965Z" fill="white"/>
<path fill-rule="evenodd" clip-rule="evenodd" d="M15.9961 5.42774C15.7305 7.59625 15.3493 12.0031 15.8767 16.6699C16.2464 19.9465 17.0623 23.3512 18.6786 26.1999C21.337 30.8887 25.585 32.4016 28.6868 32.8451C24.848 29.6977 21.4373 24.8965 21.2201 19.7384C20.4246 19.1371 19.8731 18.2203 19.7473 17.1703C19.7295 17.0177 19.7193 16.8651 19.7193 16.7112C19.7193 15.1013 20.7181 13.7229 22.1185 13.185C22.6051 11.5583 23.2913 9.89795 24.1592 8.23891C24.1249 8.15486 24.0944 8.06952 24.0677 7.98288C21.4005 6.32514 18.9264 5.16912 17.4892 4.55232C17.3507 4.49283 17.2071 4.46439 17.0673 4.46439C16.5438 4.46439 16.0647 4.85619 15.9948 5.42903L15.9961 5.42774Z" fill="white"/>
<path fill-rule="evenodd" clip-rule="evenodd" d="M52.3798 16.5859C51.983 20.2987 51.0515 24.231 49.1227 27.5556C45.9537 33.017 40.9255 34.8492 37.2966 35.4281C40.0689 36.2593 43.7766 36.522 47.6144 34.316C54.21 30.5287 58.4235 21.8225 59.8478 18.4848C60.1381 17.8026 59.6927 17.0342 58.953 16.9453C57.6234 16.7832 55.4752 16.582 52.9631 16.582C52.7713 16.582 52.5768 16.5833 52.3798 16.5859Z" fill="white"/>
<path fill-rule="evenodd" clip-rule="evenodd" d="M48.1937 4.55404C46.9461 5.09714 44.9092 6.05471 42.6456 7.40596C42.701 7.5034 42.7539 7.59825 42.8067 7.6957C44.5957 7.93476 45.983 9.51729 45.983 11.4272C45.983 12.2718 45.7124 13.0526 45.2554 13.6802C45.5764 14.8651 45.7728 16.0605 45.8483 17.2532C46.0409 20.2688 45.453 23.2741 44.1009 26.1065C42.9503 28.514 41.2683 30.7098 39.21 32.5262C41.9079 31.7363 44.9469 30.0043 47.0141 26.3053C48.6155 23.443 49.4237 20.022 49.79 16.7309C50.3125 12.0392 49.9361 7.61254 49.6717 5.43365C49.6025 4.85937 49.1278 4.46439 48.6092 4.46439C48.4707 4.46439 48.3297 4.49167 48.1912 4.55274L48.1937 4.55404Z" fill="white"/>
<path fill-rule="evenodd" clip-rule="evenodd" d="M26.1357 6.85466C26.1357 7.64642 26.7075 8.291 27.4101 8.291C28.1126 8.291 28.6868 7.64778 28.6868 6.85466C28.6868 6.06153 28.1151 5.42104 27.4101 5.42104C26.7051 5.42104 26.1357 6.06426 26.1357 6.85466Z" fill="white"/>
<path fill-rule="evenodd" clip-rule="evenodd" d="M28.6868 4.95657C29.2515 5.34892 29.623 6.00886 29.623 6.75498C29.623 7.09331 29.5466 7.4162 29.4105 7.70307L32.8323 11.161V0C31.2512 1.65948 29.8672 3.3151 28.6868 4.95785V4.95657Z" fill="white"/>
<path fill-rule="evenodd" clip-rule="evenodd" d="M34.4279 4.46438L35.2871 3.43821C35.2417 3.27027 35.2162 3.09306 35.2162 2.90793C35.2162 2.40278 35.4033 1.9492 35.7023 1.64373C35.2948 1.09758 34.8685 0.548791 34.4268 0V4.46438H34.4279Z" fill="white"/>
<path fill-rule="evenodd" clip-rule="evenodd" d="M36.0212 2.87061C36.0212 3.40072 36.4471 3.82662 36.9772 3.82662C37.5074 3.82662 37.9345 3.40072 37.9345 2.87061C37.9345 2.34049 37.5061 1.91331 36.9772 1.91331C36.4484 1.91331 36.0212 2.34049 36.0212 2.87061Z" fill="white"/>
<path fill-rule="evenodd" clip-rule="evenodd" d="M42.08 9.56654H42.0751C41.9674 9.56654 41.8597 9.5788 41.7582 9.60332C41.0303 9.76815 40.4856 10.4751 40.4856 11.3211C40.4856 12.291 41.1999 13.0743 42.0813 13.0743C42.3598 13.0743 42.6197 12.9966 42.8463 12.859C43.3402 12.5593 43.6744 11.9845 43.6744 11.3197C43.6744 10.3525 42.9589 9.56654 42.0813 9.56654H42.08Z" fill="white"/>
<path fill-rule="evenodd" clip-rule="evenodd" d="M23.4406 19.4893C23.3811 19.4893 23.3241 19.488 23.2659 19.4841C23.3785 24.9433 28.0103 30.3495 32.5916 33.0267C32.6214 33.0435 32.6512 33.0617 32.6797 33.0772H32.6809C32.7314 33.107 32.7806 33.1368 32.8324 33.164V30.7743C32.791 30.7666 32.7521 30.7575 32.712 30.7484C32.0415 30.5891 31.4421 30.2446 30.9696 29.7744L30.9579 29.7628H30.9566C30.3029 29.0996 29.8977 28.1891 29.8977 27.1866C29.8977 26.9496 29.921 26.7178 29.9637 26.4924C30.0699 25.9342 30.3042 25.4239 30.6304 24.9861L29.723 24.0782L24.7805 19.1331C24.3843 19.3597 23.9261 19.4867 23.438 19.4867L23.4406 19.4893Z" fill="white"/>
<path fill-rule="evenodd" clip-rule="evenodd" d="M23.4259 18.4953H23.434C23.5963 18.4953 23.7532 18.4725 23.9035 18.4295H23.9048C24.6399 18.2201 25.1791 17.5435 25.1791 16.7408C25.1791 15.7715 24.3944 14.9876 23.4273 14.9876C22.4601 14.9876 21.6714 15.7715 21.6714 16.7408C21.6714 17.1395 21.8055 17.5073 22.0322 17.804C22.3528 18.2241 22.8585 18.4953 23.4273 18.4953H23.4259Z" fill="white"/>
<path fill-rule="evenodd" clip-rule="evenodd" d="M32.8323 23.5004V13.478L28.4255 9.02091C28.146 9.15783 27.8285 9.23589 27.4959 9.23589C27.0949 9.23589 26.7192 9.12584 26.3942 8.92877C26.3183 9.06697 26.2462 9.20262 26.1741 9.33954C25.3216 10.9609 24.6689 12.5567 24.2224 14.114C25.419 14.3776 26.3145 15.4577 26.3145 16.7463C26.3145 17.2288 26.188 17.6818 25.9692 18.0733L29.913 22.0647H29.9143L31.7433 23.9163C32.0759 23.7193 32.4415 23.5785 32.8298 23.4992L32.8323 23.5004Z" fill="white"/>
<path fill-rule="evenodd" clip-rule="evenodd" d="M34.4281 6.45907V18.1764L34.5829 18.0217L39.9394 12.6719C39.713 12.2729 39.5842 11.8141 39.5842 11.3215C39.5842 10.2414 40.2126 9.30684 41.1233 8.86493C41.0362 8.70505 40.9464 8.54519 40.854 8.38402C40.0565 6.98417 39.1093 5.56873 38.0138 4.14549C37.7328 4.37035 37.3763 4.50163 36.9898 4.50163C36.8077 4.50163 36.6334 4.47174 36.4681 4.41975L34.4268 6.45907H34.4281Z" fill="white"/>
<path fill-rule="evenodd" clip-rule="evenodd" d="M33.6376 24.873H33.6283C32.8873 24.873 32.227 25.2099 31.7869 25.7405C31.4435 26.1544 31.238 26.685 31.238 27.2646C31.238 28.282 31.8731 29.1509 32.7679 29.4958C32.8064 29.5104 32.8435 29.5249 32.8846 29.5369C33.1193 29.6138 33.3698 29.6563 33.6283 29.6563C34.1162 29.6563 34.5696 29.5117 34.9475 29.261C35.5944 28.8338 36.0213 28.099 36.0213 27.266C36.0213 26.8826 35.9298 26.5205 35.7707 26.1981C35.4645 25.5853 34.9024 25.1224 34.2236 24.9499C34.0367 24.8995 33.8391 24.8743 33.6376 24.8743V24.873Z" fill="white"/>
<path fill-rule="evenodd" clip-rule="evenodd" d="M35.1854 19.4806L34.4268 20.2576V23.5506C34.5983 23.5857 34.7661 23.6326 34.9275 23.6925C35.2973 23.8291 35.6378 24.0244 35.939 24.2678C36.0509 24.3576 36.1551 24.4526 36.2555 24.5554C36.9036 25.2205 37.3077 26.1394 37.3077 27.1559C37.3077 28.1725 36.9048 29.0914 36.2555 29.7565C35.7649 30.2576 35.1321 30.6155 34.428 30.7613V33.164C34.4712 33.1393 34.5157 33.1145 34.5577 33.0898C40.0679 29.9166 43.9248 24.1077 43.6617 17.648C43.6134 16.4206 43.4152 15.1659 43.0479 13.9034C42.7658 14.0088 42.4583 14.0674 42.1393 14.0674C41.6602 14.0674 41.2103 13.9372 40.8215 13.712L35.1854 19.4806Z" fill="white"/>
<path d="M7.15906 58.7043H0V45.818H2.51315V56.5926H7.15906V58.7043Z" fill="white"/>
<path d="M10.0822 54.0764C10.0822 55.0428 10.238 55.7801 10.5498 56.2884C10.8615 56.7966 11.3204 57.0516 11.9273 57.0516C12.5342 57.0516 13.001 56.7941 13.3136 56.28C13.6253 55.7659 13.7812 55.0311 13.7812 54.0764C13.7812 53.1218 13.6235 52.3953 13.3083 51.8812C12.9931 51.3671 12.5325 51.1096 11.9264 51.1096C11.3204 51.1096 10.8467 51.3654 10.5402 51.877C10.2337 52.3886 10.0813 53.1218 10.0813 54.0764H10.0822ZM16.2262 54.0597C16.2262 55.5235 15.8466 56.6637 15.0873 57.4796C14.328 58.2964 13.2779 58.7043 11.936 58.7043C10.5942 58.7043 9.53448 58.2947 8.77518 57.4755C8.01588 56.6562 7.63623 55.5176 7.63623 54.0597C7.63623 52.6018 8.02807 51.5025 8.81088 50.6607C9.59369 49.8189 10.6351 49.3975 11.936 49.3975C13.2369 49.3975 14.3428 49.8072 15.0969 50.6264C15.8501 51.4456 16.2271 52.5901 16.2271 54.0589L16.2262 54.0597Z" fill="white"/>
<path d="M16.9431 51.3521V49.5465H17.8776V46.5339H20.1547V49.5465H22.3651V51.3521H20.1802V55.0324C20.1802 55.717 20.2624 56.1965 20.4261 56.4708C20.5899 56.7443 20.8778 56.8819 21.2891 56.8819C21.6502 56.8819 21.9867 56.8076 22.2985 56.659H22.4317V58.4477C21.9645 58.6191 21.4446 58.7043 20.872 58.7043C19.8429 58.7043 19.0869 58.4536 18.6032 57.9514C18.1195 57.4491 17.8776 56.6793 17.8776 55.6402V51.3521H16.9431Z" fill="white"/>
<path d="M31.4997 58.5349H29.1475V57.4946C28.8085 57.8892 28.404 58.1895 27.9323 58.3956C27.4615 58.6017 26.9559 58.7043 26.4163 58.7043C25.5376 58.7043 24.8527 58.444 24.3615 57.9217C23.8703 57.4003 23.6248 56.6035 23.6248 55.5323V49.6362H25.994V55.0333C25.994 55.6816 26.0942 56.1471 26.2956 56.4291C26.497 56.7111 26.8497 56.8521 27.3553 56.8521C27.6825 56.8521 27.9774 56.8004 28.2382 56.6961C28.4991 56.5918 28.7966 56.3849 29.1297 56.0746V49.637H31.4989V58.5358L31.4997 58.5349Z" fill="white"/>
<path d="M40.0892 56.0125C40.0892 56.8967 39.7702 57.6064 39.1315 58.1409C38.4936 58.6753 37.6383 58.943 36.5656 58.943C35.7883 58.943 35.1085 58.8677 34.5276 58.7172C33.946 58.5667 33.4936 58.3965 33.1704 58.2059V56.1861H33.3324C33.6673 56.5102 34.1449 56.7744 34.766 56.9797C35.3871 57.1849 35.9755 57.2875 36.532 57.2875C37.5367 57.2875 38.0386 56.9437 38.0386 56.2554C38.0386 56.0356 37.9958 55.8715 37.9111 55.7611C37.8254 55.6517 37.6744 55.5499 37.4561 55.4576C37.2379 55.3652 36.8048 55.2353 36.1585 55.0677C35.3645 54.871 34.771 54.6547 34.3799 54.4178C33.9888 54.1809 33.6891 53.8876 33.4818 53.5379C33.2745 53.1882 33.1712 52.7589 33.1712 52.2501C33.1712 51.4062 33.4978 50.7195 34.1499 50.1911C34.8021 49.6626 35.6482 49.3975 36.6864 49.3975C37.2194 49.3975 37.7658 49.4582 38.3248 49.5797C38.8839 49.7011 39.3505 49.8576 39.7249 50.0483V52.0338H39.5629C39.1718 51.7097 38.737 51.4617 38.2611 51.2881C37.7843 51.1146 37.2992 51.0282 36.8056 51.0282C36.3683 51.0282 36.0124 51.1146 35.738 51.2881C35.4627 51.4617 35.325 51.7046 35.325 52.0167C35.325 52.2365 35.3687 52.4066 35.4568 52.528C35.5449 52.6495 35.6977 52.7606 35.9168 52.8615C36.135 52.9624 36.6042 53.1086 37.3252 53.2993C38.3181 53.5593 39.0274 53.8902 39.4529 54.2921C39.8785 54.694 40.0908 55.2678 40.0908 56.0134L40.0892 56.0125Z" fill="white"/>
<path d="M48.9203 47.2802H43.4869V50.924H47.9866V52.3777H43.4869V58.7043H41.7612V45.818H48.9203V47.2802Z" fill="white"/>
<path d="M52.0376 47.2802V57.2669H53.1613C54.5962 57.2669 55.7089 56.8444 56.4984 55.9994C57.2879 55.1543 57.6826 53.9039 57.6826 52.2479C57.6826 50.592 57.3049 49.3859 56.5504 48.5435C55.795 47.701 54.6943 47.2802 53.2483 47.2802H52.0385H52.0376ZM50.3521 58.7043V45.818H53.1878C55.199 45.818 56.7405 46.372 57.8122 47.4799C58.8839 48.5878 59.4202 50.1857 59.4202 52.2744C59.4202 54.3631 58.8421 55.9567 57.6869 57.0561C56.5316 58.1555 55.0464 58.7043 53.2304 58.7043H50.3521Z" fill="white"/>
<path d="M65.8634 58.7043H60.8521V57.2678H62.5084V47.2716H60.8521V45.818H65.8634V47.2716H64.2079V57.2678H65.8634V58.7043Z" fill="white"/>
</svg>
